<svg xmlns="http://www.w3.org/2000/svg" width="12" height="12" viewBox="0 0 12 12" fill="none">
  <path d="M6 4.66667C6.30642 4.66667 6.60984 4.60631 6.89293 4.48905C7.17602 4.37179 7.43325 4.19992 7.64992 3.98325C7.86659 3.76658 8.03846 3.50935 8.15572 3.22626C8.27298 2.94317 8.33333 2.63975 8.33333 2.33333C8.33333 2.02692 8.27298 1.7235 8.15572 1.44041C8.03846 1.15731 7.86659 0.900088 7.64992 0.683418C7.43325 0.466748 7.17602 0.294875 6.89293 0.177614C6.60984 0.0603534 6.30642 -6.45727e-09 6 0C5.38116 1.3041e-08 4.78767 0.245833 4.35008 0.683418C3.9125 1.121 3.66667 1.71449 3.66667 2.33333C3.66667 2.95217 3.9125 3.54566 4.35008 3.98325C4.78767 4.42083 5.38116 4.66667 6 4.66667ZM0 11.6V12H12V11.6C12 10.1067 12 9.36 11.7093 8.78933C11.4537 8.28759 11.0457 7.87966 10.544 7.624C9.97333 7.33333 9.22667 7.33333 7.73333 7.33333H4.26667C2.77333 7.33333 2.02667 7.33333 1.456 7.624C0.954257 7.87966 0.546325 8.28759 0.290667 8.78933C8.9407e-08 9.36 0 10.1067 0 11.6Z" fill="#6B6B6B"/>
</svg>